<?xml version="1.0" encoding="utf-8"?>
<!-- Generator: Adobe Illustrator 26.3.1, SVG Export Plug-In . SVG Version: 6.00 Build 0)  -->
<svg version="1.1" id="图层_1" xmlns="http://www.w3.org/2000/svg" xmlns:xlink="http://www.w3.org/1999/xlink" x="0px" y="0px"
	 viewBox="0 0 554 560" style="enable-background:new 0 0 554 560;" xml:space="preserve">
<style type="text/css">
	.st0{display:none;}
	.st1{display:inline;}
	.st2{display:inline;fill:#969EB2;}
	.st3{fill:#FFFFFF;}
	.st4{font-family:'Arial-BoldItalicMT';}
	.st5{font-size:10.2053px;}
	.st6{font-family:'Arial-BoldMT';}
	.st7{fill:none;}
	.st8{clip-path:url(#SVGID_00000154428401178095372990000003355049847671300799_);}
	.st9{font-family:'ArialMT';}
	.st10{font-size:12px;}
	.st11{clip-path:url(#SVGID_00000161630506006962292810000009678104998203969425_);}
	.st12{fill: rebeccapurple;}
	.st13{fill:#722058;}
	.st14{fill:#7D7D5D;}
	.st15{font-family:'AdobeSongStd-Light-GBpc-EUC-H';}
	.st16{enable-background:new    ;}
	.st17{clip-path:url(#SVGID_00000166670065768969598690000005619265643300715137_);}
	.st18{clip-path:url(#SVGID_00000102531444196651326020000016811607133957891209_);}
</style>
<rect x="0" y="-0.2" width="554" height="560"/>
<g class="st0">
	<rect x="-21.6" y="-19.6" class="st1" width="598.6" height="598.6"/>
</g>
<g class="st0">
	<circle class="st2" cx="276.4" cy="280.7" r="230"/>
</g>
<g class="st0">
	<circle class="st2" cx="277.7" cy="280.2" r="248.6"/>
</g>
<g class="st0">
	<g class="st1">
		<defs>
			<path id="SVGID_1_" d="M-23,512l300,4c0,0,0.8-4.3,0-4.3c-127,0-230-103-230-230s103-230,230-230c0.2,0,0-5.7,0-5.7l-300,2V512z"
				/>
		</defs>
		<clipPath id="SVGID_00000149367977048723577900000001070170075256753060_">
			<use xlink:href="#SVGID_1_"  style="overflow:visible;"/>
		</clipPath>
		<g style="clip-path:url(#SVGID_00000149367977048723577900000001070170075256753060_);">
			<text transform="matrix(1 0 0 1 -21.4461 66.6476)" class="st3 st9 st10">@@@@@@@@@@@@@@@@@@@@</text>
			<text transform="matrix(1 0 0 1 -21.4461 84.8351)" class="st3 st9 st10">@@@@@@@@@@@@@@@@</text>
			<text transform="matrix(1 0 0 1 -21.4461 103.0226)" class="st3 st9 st10">@@@@@@@@@@@@@</text>
			<text transform="matrix(1 0 0 1 -21.4461 121.2101)" class="st3 st9 st10">@@@@@@@@@@@</text>
			<text transform="matrix(1 0 0 1 -21.4461 139.3976)" class="st3 st9 st10">@@@@@@@@@@</text>
			<text transform="matrix(1 0 0 1 -21.4461 157.5851)" class="st3 st9 st10">@@@@@@@@@</text>
			<text transform="matrix(1 0 0 1 -21.4461 175.7726)" class="st3 st9 st10">@@@@@@@@</text>
			<text transform="matrix(1 0 0 1 -21.4461 193.9601)" class="st3 st9 st10">@@@@@@@</text>
			<text transform="matrix(1 0 0 1 -21.4461 212.1476)" class="st3 st9 st10">@@@@@@@</text>
			<text transform="matrix(1 0 0 1 -21.4461 230.3351)" class="st3 st9 st10">@@@@@@</text>
			<text transform="matrix(1 0 0 1 -21.4461 248.5226)" class="st3 st9 st10">@@@@@@</text>
			<text transform="matrix(1 0 0 1 -21.4461 266.7101)" class="st3 st9 st10">@@@@@@</text>
			<text transform="matrix(1 0 0 1 -21.4461 284.8976)" class="st3 st9 st10">@@@@@@</text>
			<text transform="matrix(1 0 0 1 -21.4461 303.0851)" class="st3 st9 st10">@@@@@@</text>
			<text transform="matrix(1 0 0 1 -21.4461 321.2726)" class="st3 st9 st10">@@@@@@</text>
			<text transform="matrix(1 0 0 1 -21.4461 339.4601)" class="st3 st9 st10">@@@@@@</text>
			<text transform="matrix(1 0 0 1 -21.4461 357.6476)" class="st3 st9 st10">@@@@@@@</text>
			<text transform="matrix(1 0 0 1 -21.4461 375.8351)" class="st3 st9 st10">@@@@@@@</text>
			<text transform="matrix(1 0 0 1 -21.4461 394.0226)" class="st3 st9 st10">@@@@@@@@</text>
			<text transform="matrix(1 0 0 1 -21.4461 412.2101)" class="st3 st9 st10">@@@@@@@@@</text>
			<text transform="matrix(1 0 0 1 -21.4461 430.3976)" class="st3 st9 st10">@@@@@@@@@@</text>
			<text transform="matrix(1 0 0 1 -21.4461 448.5851)" class="st3 st9 st10">@@@@@@@@@@@</text>
			<text transform="matrix(1 0 0 1 -21.4461 466.7726)" class="st3 st9 st10">@@@@@@@@@@@@@</text>
			<text transform="matrix(1 0 0 1 -21.4461 484.9601)" class="st3 st9 st10">@@@@@@@@@@@@@@@</text>
			<text transform="matrix(1 0 0 1 -21.4461 503.1476)" class="st3 st9 st10">@@@@@@@@@@@@@@@@@@@@</text>
		</g>
	</g>
</g>
<g>
	<g>
		<defs>
			<circle id="SVGID_00000084494630769890427010000012512188009330571157_" cx="277" cy="279.8" r="230"/>
		</defs>
		<clipPath id="SVGID_00000166672586655347339490000008260301916505816979_">
			<use xlink:href="#SVGID_00000084494630769890427010000012512188009330571157_"  style="overflow:visible;"/>
		</clipPath>
		<g style="clip-path:url(#SVGID_00000166672586655347339490000008260301916505816979_);">
			<text transform="matrix(1 0 0 1 102.4993 138.649)" class="st12 st9 st10">**********************</text>
			<text transform="matrix(1 0 0 1 205.2393 138.649)" class="st13 st9 st10">*</text>
			<text transform="matrix(1 0 0 1 209.9093 138.649)" class="st14 st9 st10">*/**</text>
			<text transform="matrix(1 0 0 1 227.2493 138.649)" class="st13 st9 st10">*</text>
			<text transform="matrix(1 0 0 1 231.9193 138.649)" class="st12 st9 st10">***********************************************</text>
			<text transform="matrix(1 0 0 1 87.8215 156.8365)" class="st12 st9 st10">****************</text>
			<text transform="matrix(1 0 0 1 162.5415 156.8365)" class="st14 st9 st10">***********************</text>
			<text transform="matrix(1 0 0 1 269.9515 156.8365)" class="st12 st9 st10">**********************</text>
			<text transform="matrix(1 0 0 1 372.6915 156.8365)" class="st14 st9 st10">*******</text>
			<text transform="matrix(1 0 0 1 405.3715 156.8365)" class="st12 st9 st10">*************</text>
			<text transform="matrix(1 0 0 1 78.4817 175.024)" class="st12 st9 st10">*****************</text>
			<text transform="matrix(1 0 0 1 157.8717 175.024)" class="st14 st9 st10">***********</text>
			<text transform="matrix(1 0 0 1 209.2417 175.024)" class="st13 st9 st10">*</text>
			<text transform="matrix(1 0 0 1 213.9117 175.024)" class="st12 st9 st10">**********</text>
			<text transform="matrix(1 0 0 1 260.6117 175.024)" class="st14 st9 st10">***********</text>
			<text transform="matrix(1 0 0 1 311.9817 175.024)" class="st12 st9 st10">**********</text>
			<text transform="matrix(1 0 0 1 358.6817 175.024)" class="st13 st9 st10">*</text>
			<text transform="matrix(1 0 0 1 363.3517 175.024)" class="st14 st9 st10">*********</text>
			<text transform="matrix(1 0 0 1 405.3717 175.024)" class="st12 st9 st10">***************</text>
			<text transform="matrix(1 0 0 1 70.4778 193.2115)" class="st12 st9 st10">****************</text>
			<text transform="matrix(1 0 0 1 145.1978 193.2115)" class="st14 st9 st10">/***/</text>
			<text transform="matrix(1 0 0 1 165.8778 193.2115)" class="st12 st9 st10">*************************</text>
			<text transform="matrix(1 0 0 1 282.6178 193.2115)" class="st13 st9 st10">*</text>
			<text transform="matrix(1 0 0 1 287.2878 193.2115)" class="st14 st9 st10">*********************</text>
			<text transform="matrix(1 0 0 1 385.3578 193.2115)" class="st12 st9 st10">*********************</text>
			<text transform="matrix(1 0 0 1 62.137 211.399)" class="st12 st9 st10">*******************************************************</text>
			<text transform="matrix(1 0 0 1 318.987 211.399)" class="st14 st9 st10">****</text>
			<text transform="matrix(1 0 0 1 337.667 211.399)" class="st13 st9 st10">*</text>
			<text transform="matrix(1 0 0 1 342.337 211.399)" class="st12 st9 st10">********************************</text>
			<g>
				<text transform="matrix(1 0 0 1 67.4749 375.0863)" class="st12 st9 st10">****************************</text>
				<text transform="matrix(1 0 0 1 198.2349 375.0863)" class="st14 st9 st10">*/**</text>
				<text transform="matrix(1 0 0 1 215.5749 375.0863)" class="st13 st9 st10">*</text>
				<text transform="matrix(1 0 0 1 220.2449 375.0863)" class="st12 st9 st10">*********************************************************</text>
			</g>
			<text transform="matrix(1 0 0 1 76.1467 393.2738)" class="st12 st9 st10">*******************</text>
			<text transform="matrix(1 0 0 1 164.8767 393.2738)" class="st14 st9 st10">*******************</text>
			<text transform="matrix(1 0 0 1 253.6067 393.2738)" class="st12 st9 st10">**************************</text>
			<text transform="matrix(1 0 0 1 375.0267 393.2738)" class="st14 st9 st10">******</text>
			<text transform="matrix(1 0 0 1 403.0367 393.2738)" class="st12 st9 st10">****************</text>
			<text transform="matrix(1 0 0 1 85.4866 411.4613)" class="st12 st9 st10">**************</text>
			<text transform="matrix(1 0 0 1 150.8666 411.4613)" class="st13 st9 st10">*</text>
			<text transform="matrix(1 0 0 1 155.5366 411.4613)" class="st14 st9 st10">********</text>
			<text transform="matrix(1 0 0 1 192.8966 411.4613)" class="st12 st9 st10">********</text>
			<text transform="matrix(1 0 0 1 230.2566 411.4613)" class="st13 st9 st10">*</text>
			<text transform="matrix(1 0 0 1 234.9266 411.4613)" class="st14 st9 st10">**********</text>
			<text transform="matrix(1 0 0 1 281.6266 411.4613)" class="st12 st9 st10">***************</text>
			<text transform="matrix(1 0 0 1 351.6766 411.4613)" class="st13 st9 st10">*</text>
			<text transform="matrix(1 0 0 1 356.3466 411.4613)" class="st14 st9 st10">**********</text>
			<text transform="matrix(1 0 0 1 403.0366 411.4613)" class="st12 st9 st10">**************</text>
			<text transform="matrix(1 0 0 1 101.8313 429.6488)" class="st12 st9 st10">*********</text>
			<text transform="matrix(1 0 0 1 143.8613 429.6488)" class="st13 st9 st10">*</text>
			<text transform="matrix(1 0 0 1 148.5313 429.6488)" class="st14 st9 st10">******</text>
			<text transform="matrix(1 0 0 1 176.5513 429.6488)" class="st12 st9 st10">******************</text>
			<text transform="matrix(1 0 0 1 260.6113 429.6488)" class="st14 st9 st10">****************************</text>
			<text transform="matrix(1 0 0 1 391.3713 429.6488)" class="st13 st9 st10">*</text>
			<text transform="matrix(1 0 0 1 396.0413 429.6488)" class="st12 st9 st10">************</text>
			<text transform="matrix(1 0 0 1 118.1761 447.8363)" class="st12 st9 st10">*******************************************</text>
			<text transform="matrix(1 0 0 1 318.9861 447.8363)" class="st14 st9 st10">****</text>
			<text transform="matrix(1 0 0 1 337.6661 447.8363)" class="st13 st9 st10">*</text>
			<text transform="matrix(1 0 0 1 342.3361 447.8363)" class="st12 st9 st10">********************</text>
			<g>
				<text transform="matrix(1 0 0 1 217.798 65.8989)" class="st12 st15 st10">（，</text>
				<text transform="matrix(1 0 0 1 241.798 65.8989)" class="st12 st9 st10">*******************</text>
				<text transform="matrix(1 0 0 1 177.2928 84.0864)" class="st12 st9 st10">*******************************************</text>
				<text transform="matrix(1 0 0 1 143.8299 102.274)" class="st12 st9 st10">*********************************************************</text>
				<text transform="matrix(1 0 0 1 122.8153 120.4615)" class="st12 st9 st10">******************************************************************</text>
			</g>
			<text transform="matrix(1 0 0 1 55.1321 229.5865)" class="st12 st9 st10">***********************************************************************************************</text>
			<text transform="matrix(1 0 0 1 50.4622 247.774)" class="st12 st9 st10">*************************************************************************************************</text>
			<text transform="matrix(1 0 0 1 48.1272 265.9615)" class="st12 st9 st10">**************************************************************************************************</text>
			<text transform="matrix(1 0 0 1 48.1272 284.149)" class="st12 st9 st10">**************************************************************************************************</text>
			<text transform="matrix(1 0 0 1 48.1272 302.3365)" class="st12 st9 st10">**************************************************************************************************</text>
			<text transform="matrix(1 0 0 1 50.4622 320.524)" class="st12 st9 st10">*************************************************************************************************</text>
			<text transform="matrix(1 0 0 1 55.1321 338.7115)" class="st12 st9 st10">***********************************************************************************************</text>
			<text transform="matrix(1 0 0 1 59.802 356.8988)" class="st12 st9 st10">*********************************************************************************************</text>
			<text transform="matrix(1 0 0 1 136.8558 466.0238)" class="st12 st9 st10">************************************************************</text>
			<text transform="matrix(1 0 0 1 164.8753 484.2113)" class="st12 st9 st10">************************************************</text>
			<text transform="matrix(1 0 0 1 224.0741 500.3988)" class="st12 st9 st10">(,*********************</text>
		</g>
	</g>
</g>
<g>
	<g>
		<g>
			<text transform="matrix(1 0 0 1 163.1874 237.8351)" class="st3 st4 st5">@</text>
			<text transform="matrix(1 0 0 1 172.6698 237.8351)" class="st3 st4 st5">@</text>
			<text transform="matrix(1 0 0 1 182.1522 237.8351)" class="st3 st4 st5">@</text>
			<text transform="matrix(1 0 0 1 191.6347 237.8351)" class="st3 st4 st5">@</text>
			<text transform="matrix(1 0 0 1 201.1171 237.8351)" class="st3 st4 st5">@</text>
			<text transform="matrix(1 0 0 1 210.5995 237.8351)" class="st3 st4 st5">@</text>
			<text transform="matrix(1 0 0 1 220.0819 237.8351)" class="st3 st4 st5">@</text>
		</g>
		<g>
			<text transform="matrix(1 0 0 1 163.1874 326.7667)" class="st3 st4 st5">@</text>
			<text transform="matrix(1 0 0 1 172.6698 326.7667)" class="st3 st4 st5">@</text>
			<text transform="matrix(1 0 0 1 182.1522 326.7667)" class="st3 st4 st5">@</text>
			<text transform="matrix(1 0 0 1 191.6347 326.7667)" class="st3 st4 st5">@</text>
			<text transform="matrix(1 0 0 1 201.1171 326.7667)" class="st3 st4 st5">@</text>
			<text transform="matrix(1 0 0 1 210.5995 326.7667)" class="st3 st4 st5">@</text>
			<text transform="matrix(1 0 0 1 220.0819 326.7667)" class="st3 st4 st5">@</text>
		</g>
		<g>
			<text transform="matrix(1 0 0 1 163.2382 308.8859)" class="st3 st6 st5">@</text>
			<text transform="matrix(1 0 0 1 173.0165 308.8859)" class="st3 st6 st5">@</text>
			<text transform="matrix(1 0 0 1 163.2382 290.1349)" class="st3 st6 st5">@</text>
			<text transform="matrix(1 0 0 1 173.0165 290.1349)" class="st3 st6 st5">@</text>
			<text transform="matrix(1 0 0 1 163.2382 273.4913)" class="st3 st6 st5">@</text>
			<text transform="matrix(1 0 0 1 173.0165 273.4913)" class="st3 st6 st5">@</text>
			<text transform="matrix(1 0 0 1 163.2382 255.9992)" class="st3 st6 st5">@</text>
			<text transform="matrix(1 0 0 1 173.0165 255.9992)" class="st3 st6 st5">@</text>
		</g>
		<g>
			<text transform="matrix(1 0 0 1 225.1991 255.9992)" class="st3 st6 st5">@</text>
			<text transform="matrix(1 0 0 1 234.9774 255.9992)" class="st3 st6 st5">@</text>
			<text transform="matrix(1 0 0 1 225.1991 309.213)" class="st3 st6 st5">@</text>
			<text transform="matrix(1 0 0 1 234.9774 309.213)" class="st3 st6 st5">@</text>
			<text transform="matrix(1 0 0 1 232.4882 273.4943)" class="st3 st6 st5">@</text>
			<text transform="matrix(1 0 0 1 242.2675 273.4943)" class="st3 st6 st5">@</text>
			<text transform="matrix(1 0 0 1 232.4882 290.2599)" class="st3 st6 st5">@</text>
			<text transform="matrix(1 0 0 1 242.2675 290.2599)" class="st3 st6 st5">@</text>
		</g>
	</g>
	<g>
		<g>
			<text transform="matrix(1 0 0 1 301.6884 237.8351)" class="st3 st4 st5">@</text>
			<text transform="matrix(1 0 0 1 311.1708 237.8351)" class="st3 st4 st5">@</text>
			<text transform="matrix(1 0 0 1 320.6532 237.8351)" class="st3 st4 st5">@</text>
			<text transform="matrix(1 0 0 1 330.1356 237.8351)" class="st3 st4 st5">@</text>
			<text transform="matrix(1 0 0 1 339.6171 237.8351)" class="st3 st4 st5">@</text>
			<text transform="matrix(1 0 0 1 349.0995 237.8351)" class="st3 st4 st5">@</text>
			<text transform="matrix(1 0 0 1 358.5819 237.8351)" class="st3 st4 st5">@</text>
		</g>
		<g>
			<text transform="matrix(1 0 0 1 301.6884 326.7667)" class="st3 st4 st5">@</text>
			<text transform="matrix(1 0 0 1 311.1708 326.7667)" class="st3 st4 st5">@</text>
			<text transform="matrix(1 0 0 1 320.6532 326.7667)" class="st3 st4 st5">@</text>
			<text transform="matrix(1 0 0 1 330.1356 326.7667)" class="st3 st4 st5">@</text>
			<text transform="matrix(1 0 0 1 339.6171 326.7667)" class="st3 st4 st5">@</text>
			<text transform="matrix(1 0 0 1 349.0995 326.7667)" class="st3 st4 st5">@</text>
			<text transform="matrix(1 0 0 1 358.5819 326.7667)" class="st3 st4 st5">@</text>
		</g>
		<g>
			<text transform="matrix(1 0 0 1 301.7391 308.8859)" class="st3 st6 st5">@</text>
			<text transform="matrix(1 0 0 1 311.5175 308.8859)" class="st3 st6 st5">@</text>
			<text transform="matrix(1 0 0 1 301.7391 290.1349)" class="st3 st6 st5">@</text>
			<text transform="matrix(1 0 0 1 311.5175 290.1349)" class="st3 st6 st5">@</text>
			<text transform="matrix(1 0 0 1 301.7391 273.4913)" class="st3 st6 st5">@</text>
			<text transform="matrix(1 0 0 1 311.5175 273.4913)" class="st3 st6 st5">@</text>
			<text transform="matrix(1 0 0 1 301.7391 255.9992)" class="st3 st6 st5">@</text>
			<text transform="matrix(1 0 0 1 311.5175 255.9992)" class="st3 st6 st5">@</text>
		</g>
		<g>
			<text transform="matrix(1 0 0 1 363.7001 255.9992)" class="st3 st6 st5">@</text>
			<text transform="matrix(1 0 0 1 373.4784 255.9992)" class="st3 st6 st5">@</text>
			<text transform="matrix(1 0 0 1 363.7001 309.213)" class="st3 st6 st5">@</text>
			<text transform="matrix(1 0 0 1 373.4784 309.213)" class="st3 st6 st5">@</text>
			<text transform="matrix(1 0 0 1 370.9901 273.4943)" class="st3 st6 st5">@</text>
			<text transform="matrix(1 0 0 1 380.7675 273.4943)" class="st3 st6 st5">@</text>
			<text transform="matrix(1 0 0 1 370.9901 290.2599)" class="st3 st6 st5">@</text>
			<text transform="matrix(1 0 0 1 380.7675 290.2599)" class="st3 st6 st5">@</text>
		</g>
	</g>
	<g>
		<g>
			<text transform="matrix(1 0 0 1 266.4179 271.9113)" class="st3 st6 st5">@</text>
			<text transform="matrix(1 0 0 1 276.1962 271.9113)" class="st3 st6 st5">@</text>
		</g>
		<g>
			<text transform="matrix(1 0 0 1 266.4179 255.2672)" class="st3 st6 st5">@</text>
			<text transform="matrix(1 0 0 1 276.1962 255.2672)" class="st3 st6 st5">@</text>
		</g>
		<g>
			<text transform="matrix(1 0 0 1 266.4179 237.7755)" class="st3 st6 st5">@</text>
			<text transform="matrix(1 0 0 1 276.1962 237.7755)" class="st3 st6 st5">@</text>
		</g>
		<g>
			<text transform="matrix(1 0 0 1 266.4179 290.6613)" class="st3 st6 st5">@</text>
			<text transform="matrix(1 0 0 1 276.1962 290.6613)" class="st3 st6 st5">@</text>
			<rect x="274.7" y="279.3" class="st7" width="1.7" height="1.1"/>
		</g>
		<g>
			<text transform="matrix(1 0 0 1 266.4179 308.3429)" class="st3 st6 st5">@</text>
			<text transform="matrix(1 0 0 1 276.1962 308.3429)" class="st3 st6 st5">@</text>
			<rect x="274.7" y="296.9" class="st7" width="1.7" height="1.1"/>
		</g>
		<g>
			<text transform="matrix(1 0 0 1 266.4179 326.5665)" class="st3 st6 st5">@</text>
			<text transform="matrix(1 0 0 1 276.1962 326.5665)" class="st3 st6 st5">@</text>
			<polyline class="st7" points="274.7,316.2 274.7,315.2 276.4,315.2 			"/>
		</g>
	</g>
</g>
<g>
	<g>
		<g>
			<text transform="matrix(1 0 0 1 2.6555 519.506)" class="st3 st9 st10">@@@@@@@@@@@@@@@@@@ </text>
			<text transform="matrix(1 0 0 1 2.6555 46.6313)" class="st3 st9 st10">@@@@@@@@@@@@@@@@@@</text>
			<text transform="matrix(1 0 0 1 2.6555 64.8188)" class="st3 st9 st10">@@@@@@@@@@@@@@@</text>
			<text transform="matrix(1 0 0 1 2.6555 83.0059)" class="st3 st9 st10">@@@@@@@@@@@</text>
			<text transform="matrix(1 0 0 1 2.6555 101.1934)" class="st3 st9 st10">@@@@@@@@@</text>
			<text transform="matrix(1 0 0 1 2.6555 119.381)" class="st3 st9 st10">@@@@@@@</text>
			<text transform="matrix(1 0 0 1 2.6555 137.5685)" class="st3 st9 st10">@@@@@@</text>
			<text transform="matrix(1 0 0 1 2.6555 155.756)" class="st3 st9 st10">@@@@@</text>
			<text transform="matrix(1 0 0 1 2.6555 173.9435)" class="st3 st9 st10">@@@@</text>
			<text transform="matrix(1 0 0 1 2.6555 192.1311)" class="st3 st9 st10">@@@&amp;</text>
			<text transform="matrix(1 0 0 1 2.6555 210.3186)" class="st3 st9 st10">@@@</text>
			<text transform="matrix(1 0 0 1 3.3157 228.7297)" class="st16"><tspan x="0" y="0" class="st3 st9 st10">@@</tspan><tspan x="24.4" y="0" class="st3 st15 st10">/</tspan></text>
			<text transform="matrix(1 0 0 1 2.6555 246.6937)" class="st3 st9 st10">@@</text>
			<text transform="matrix(1 0 0 1 2.6555 264.8812)" class="st3 st9 st10">@@</text>
			<text transform="matrix(1 0 0 1 2.6555 283.0687)" class="st3 st9 st10">@@</text>
			<text transform="matrix(1 0 0 1 2.6555 301.2557)" class="st3 st9 st10">@@</text>
			<text transform="matrix(1 0 0 1 2.6555 319.4433)" class="st3 st9 st10">@@</text>
			<text transform="matrix(1 0 0 1 2.6555 337.6309)" class="st3 st9 st10">@@&amp;</text>
			<text transform="matrix(1 0 0 1 2.6555 355.8184)" class="st3 st9 st10">@@@</text>
			<text transform="matrix(1 0 0 1 2.6555 374.0059)" class="st3 st9 st10">@@@/</text>
			<text transform="matrix(1 0 0 1 2.6555 392.1934)" class="st3 st9 st10">@@@@</text>
			<text transform="matrix(1 0 0 1 2.6555 410.381)" class="st3 st9 st10">@@@@@</text>
			<text transform="matrix(1 0 0 1 2.6555 428.5685)" class="st3 st9 st10">@@@@@@</text>
			<text transform="matrix(1 0 0 1 2.6555 446.756)" class="st3 st9 st10">@@@@@@@</text>
			<text transform="matrix(0.9962 0 0 1 2.6586 464.9436)" class="st3 st9 st10">@@@@@@@@@</text>
			<text transform="matrix(1 0 0 1 2.6555 483.1311)" class="st3 st9 st10">@@@@@@@@@@@</text>
			<text transform="matrix(1 0 0 1 2.6555 501.3186)" class="st3 st9 st10">@@@@@@@@@@@@@@</text>
		</g>
		<g>
			<text transform="matrix(1 0 0 1 331.9811 519.1871)" class="st3 st9 st10">@@@@@@@@@@@@@@@@@@</text>
			<text transform="matrix(1 0 0 1 331.9811 46.3123)" class="st3 st9 st10">@@@@@@@@@@@@@@@@@@</text>
			<text transform="matrix(1 0 0 1 368.526 64.4998)" class="st3 st9 st10">@@@@@@@@@@@@@@@</text>
			<text transform="matrix(1 0 0 1 417.2526 82.687)" class="st3 st9 st10">@@@@@@@@@@@</text>
			<text transform="matrix(1 0 0 1 441.6158 100.8745)" class="st3 st9 st10">@@@@@@@@@</text>
			<text transform="matrix(1 0 0 1 465.9791 119.062)" class="st3 st9 st10">@@@@@@@</text>
			<text transform="matrix(1 0 0 1 478.1608 137.2495)" class="st3 st9 st10">@@@@@@</text>
			<text transform="matrix(1 0 0 1 490.3424 155.437)" class="st3 st9 st10">@@@@@</text>
			<text transform="matrix(1 0 0 1 502.524 173.6245)" class="st3 st9 st10">@@@@</text>
			<text transform="matrix(1 0 0 1 506.7018 191.8121)" class="st3 st9 st10">&amp;@@@</text>
			<text transform="matrix(1 0 0 1 514.7057 209.9996)" class="st3 st9 st10">@@@</text>
			<text transform="matrix(1 0 0 1 522.4576 228.4108)" class="st16"><tspan x="0" y="0" class="st3 st15 st10">/</tspan><tspan x="4" y="0" class="st3 st9 st10">@@</tspan></text>
			<text transform="matrix(1 0 0 1 526.8873 246.3747)" class="st3 st9 st10">@@</text>
			<text transform="matrix(1 0 0 1 526.8873 264.5622)" class="st3 st9 st10">@@</text>
			<text transform="matrix(1 0 0 1 526.8873 282.7497)" class="st3 st9 st10">@@</text>
			<text transform="matrix(1 0 0 1 526.8873 300.9368)" class="st3 st9 st10">@@</text>
			<text transform="matrix(1 0 0 1 526.8873 319.1244)" class="st3 st9 st10">@@</text>
			<text transform="matrix(1 0 0 1 518.8834 337.3119)" class="st3 st9 st10">&amp;@@</text>
			<text transform="matrix(1 0 0 1 514.7057 355.4994)" class="st3 st9 st10">@@@</text>
			<text transform="matrix(1 0 0 1 511.3717 373.6869)" class="st3 st9 st10">/@@@</text>
			<text transform="matrix(1 0 0 1 502.524 391.8744)" class="st3 st9 st10">@@@@</text>
			<text transform="matrix(1 0 0 1 490.3424 410.062)" class="st3 st9 st10">@@@@@</text>
			<text transform="matrix(1 0 0 1 478.1608 428.2495)" class="st3 st9 st10">@@@@@@</text>
			<text transform="matrix(1 0 0 1 465.9791 446.437)" class="st3 st9 st10">@@@@@@@</text>
			<text transform="matrix(0.9962 0 0 1 442.0305 464.6247)" class="st3 st9 st10">@@@@@@@@@</text>
			<text transform="matrix(1 0 0 1 417.2526 482.8121)" class="st3 st9 st10">@@@@@@@@@@@</text>
			<text transform="matrix(1 0 0 1 380.7076 500.9996)" class="st3 st9 st10">@@@@@@@@@@@@@@</text>
		</g>
		<g>
			<defs>
				<rect id="SVGID_00000174593136850031539030000001676763090526475139_" x="2.7" y="0.2" width="548.6" height="31.1"/>
			</defs>
			<clipPath id="SVGID_00000127760022527673555870000011430781368682266003_">
				<use xlink:href="#SVGID_00000174593136850031539030000001676763090526475139_"  style="overflow:visible;"/>
			</clipPath>
			<g style="clip-path:url(#SVGID_00000127760022527673555870000011430781368682266003_);">
				<text transform="matrix(1 0 0 1 2.5204 10.2563)" class="st3 st9 st10">@@@@@@@@@@@@@@@@@@@@@@@@@@@@@@@@@@@@@@@@@@@@@</text>
				<text transform="matrix(1 0 0 1 2.5204 28.4438)" class="st3 st9 st10">@@@@@@@@@@@@@@@@@@@@@@@@@@@@@@@@@@@@@@@@@@@@@</text>
			</g>
		</g>
	</g>
	<g>
		<defs>
			<rect id="SVGID_00000081605253479900125270000015281152683988120463_" x="2.7" y="528.3" width="548.6" height="31.1"/>
		</defs>
		<clipPath id="SVGID_00000034802265995004406570000012947392127089009038_">
			<use xlink:href="#SVGID_00000081605253479900125270000015281152683988120463_"  style="overflow:visible;"/>
		</clipPath>
		<g style="clip-path:url(#SVGID_00000034802265995004406570000012947392127089009038_);">
			<text transform="matrix(1 0 0 1 2.5204 538.3338)" class="st3 st9 st10">@@@@@@@@@@@@@@@@@@@@@@@@@@@@@@@@@@@@@@@@@@@@@</text>
			<text transform="matrix(1 0 0 1 2.5204 556.5213)" class="st3 st9 st10">@@@@@@@@@@@@@@@@@@@@@@@@@@@@@@@@@@@@@@@@@@@@@</text>
		</g>
	</g>
</g>
</svg>
